<svg xmlns="http://www.w3.org/2000/svg" version="1.1" xmlns:xlink="http://www.w3.org/1999/xlink" width="2000" height="132" viewBox="0 0 2000 132"><svg xml:space="preserve" width="2000" height="132" data-version="2" data-id="lg_klSNC1Zsgjh69XA1kr" viewBox="0 0 571 132" x="0" y="0"><rect width="100%" height="100%" fill="transparent"></rect><path fill="#460412" d="M102.855 22.735h-9.08v-2.27a2.27 2.27 0 1 0-4.54 0v2.27h-27.24v-2.27a2.27 2.27 0 0 0-4.54 0v2.27h-27.24v-2.27a2.27 2.27 0 0 0-4.54 0v2.27h-9.08a11.35 11.35 0 0 0-11.35 11.35v81.72a11.35 11.35 0 0 0 11.35 11.35h86.26a11.35 11.35 0 0 0 11.35-11.35v-81.72a11.35 11.35 0 0 0-11.35-11.35m6.81 93.07a6.81 6.81 0 0 1-6.81 6.81h-86.26a6.81 6.81 0 0 1-6.81-6.81v-81.72a6.81 6.81 0 0 1 6.81-6.81h9.08v6.81a2.27 2.27 0 0 0 4.54 0v-6.81h27.24v6.81a2.27 2.27 0 0 0 4.54 0v-6.81h27.24v6.81a2.27 2.27 0 1 0 4.54 0v-6.81h9.08a6.81 6.81 0 0 1 6.81 6.81Z"></path><path fill="#460412" d="M96.045 47.705h-72.64a2.27 2.27 0 0 0 0 4.54h72.64a2.27 2.27 0 1 0 0-4.54m-9.08 20.43h-4.54v6.81h-20.43v-6.81h-4.54v6.81h-20.43v-6.81h-4.54v6.81h-9.08v4.54h9.08v13.62h-9.08v4.54h9.08v6.81h4.54v-6.81h20.43v6.81h4.54v-6.81h11.35v-4.54h-11.35v-13.62h20.43v24.97h4.54v-24.97h9.08v-4.54h-9.08Zm-29.51 24.97h-20.43v-13.62h20.43Z"></path><path fill="#5e0a07" d="M148.09 32.59q.31-.77 1.24-1.78.93-1.01 2.1-2.1 1.16-1.08 2.33-2.09 1.16-1.01 2.09-1.48 1.25.93 2.1 2.33.85 1.4 2.1 4.74 1.24 3.33 3.02 9.08 1.79 5.74 4.74 15.37 2.95 9.63 7.38 23.68 4.42 14.05 10.79 33.77.62-.46 2.25-4.97 1.63-4.5 3.96-11.25 2.33-6.76 5.04-15.06 2.72-8.31 5.36-16.77 2.64-8.47 5.05-16.15 2.4-7.69 4.11-13.28.47-2.17.7-4.27.23-2.1.7-3.8.47-1.71 1.63-2.88 1.16-1.16 3.96-1.16 2.17-.93 4.04 2.17 1.86 3.11 3.8 9.01 1.94 5.9 4.12 13.74 2.17 7.84 4.89 16.38 2.71 8.54 6.05 17.01 3.34 8.46 7.84 15.44l21.9-89.43q.31-1.24 1.16-2.02.86-.78 2.02-.78 1.17 0 2.41 1.09 1.24 1.09 2.33 3.57l-21.74 87.57q0 2.02-.47 4.74-.46 2.72-1.24 5.28t-1.79 4.43q-1 1.86-2.32 2.25-1.32.38-2.88-1.09-1.55-1.48-3.26-5.82-8.69-15.38-15.53-32.07-6.83-16.69-12.42-35.32l-19.87 65.52q-.93 6.84-2.72 10.95-1.78 4.12-3.88 6.13-2.1 2.02-4.27 2.49-2.18.46-3.88.23-1.71-.23-2.57-.93-.85-.7-.54-1.01-3.57-4.81-6.13-11.57-2.56-6.75-4.66-14.75t-4.11-16.77q-2.02-8.77-4.27-17.39-2.26-8.62-5.36-16.54-3.11-7.91-7.3-14.44m145.66 57.93q-.78.16-2.33.47-1.55.31-3.26.15-1.71-.15-3.03-.93-1.32-.78-1.32-2.64 0-1.09.47-1.55.46-.47 1.55-1.4 3.41-2.79 5.82-7.22 2.41-4.42 4.43-9.47 2.01-5.05 4.27-10.09 2.25-5.05 5.2-9.09 2.95-4.03 7.3-6.52 4.34-2.48 10.71-2.33 2.64 0 5.9 1.24 3.26 1.25 6.06 3.34 2.79 2.1 4.65 5.05 1.87 2.95 1.87 6.52.77 1.24-1.48 3.57t-6.13 5.05q-3.88 2.72-8.77 5.59-4.9 2.87-9.4 5.35-4.5 2.49-7.92 4.35-3.41 1.87-4.5 2.8-.78 1.55-1.24 3.57-.47 2.02-.7 3.8-.23 1.79-.31 3.26-.08 1.48-.08 2.26 0 2.95-.23 6.52-.24 3.57.31 6.75.54 3.18 2.56 5.28t6.83 2.1q5.13 0 9.63-2.57 4.5-2.56 8.38-6.28 3.89-3.73 7.07-8.08t5.74-8.15q2.57-3.8 4.58-6.29 2.02-2.48 3.42-2.48 1.55 0 3.34.54 1.78.54 1.78 2.56 0 2.8-2.25 6.68t-5.9 8.23q-3.65 4.35-8.38 8.62-4.74 4.27-9.55 7.6-4.81 3.34-9.47 5.44-4.66 2.1-8.23 2.1-6.99 0-10.56-3.42-3.57-3.42-5.05-8.54-1.47-5.12-1.55-10.95-.08-5.82-.23-10.79m28.57-41.92q-2.64 0-5.59 2.56-2.95 2.56-5.51 6.21-2.57 3.65-4.2 7.45-1.63 3.81-1.63 6.29 2.33 0 6.76-1.78 4.42-1.79 8.77-4.43 4.35-2.64 7.61-5.59 3.26-2.95 3.26-5.59 0-1.4-1.09-2.33-1.08-.93-2.56-1.55t-3.03-.93q-1.55-.31-2.79-.31m44.87 41.92q-.78.16-2.33.47-1.55.31-3.26.15-1.71-.15-3.03-.93-1.32-.78-1.32-2.64 0-1.09.47-1.55.47-.47 1.55-1.4 3.42-2.79 5.83-7.22 2.4-4.42 4.42-9.47 2.02-5.05 4.27-10.09 2.25-5.05 5.2-9.09 2.95-4.03 7.3-6.52 4.35-2.48 10.71-2.33 2.64 0 5.9 1.24 3.26 1.25 6.06 3.34 2.79 2.1 4.66 5.05 1.86 2.95 1.86 6.52.78 1.24-1.47 3.57-2.26 2.33-6.14 5.05-3.88 2.72-8.77 5.59-4.89 2.87-9.39 5.35-4.51 2.49-7.92 4.35-3.42 1.87-4.51 2.8-.77 1.55-1.24 3.57-.46 2.02-.7 3.8-.23 1.79-.31 3.26-.08 1.48-.08 2.26 0 2.95-.23 6.52-.23 3.57.31 6.75.55 3.18 2.56 5.28 2.02 2.1 6.84 2.1 5.12 0 9.62-2.57 4.51-2.56 8.39-6.28 3.88-3.73 7.06-8.08 3.19-4.35 5.75-8.15 2.56-3.8 4.58-6.29 2.02-2.48 3.41-2.48 1.56 0 3.34.54 1.79.54 1.79 2.56 0 2.8-2.25 6.68t-5.9 8.23q-3.65 4.35-8.39 8.62-4.73 4.27-9.55 7.6-4.81 3.34-9.47 5.44-4.66 2.1-8.23 2.1-6.99 0-10.56-3.42-3.57-3.42-5.04-8.54-1.48-5.12-1.56-10.95-.07-5.82-.23-10.79m28.57-41.92q-2.64 0-5.59 2.56-2.95 2.56-5.51 6.21-2.56 3.65-4.19 7.45-1.63 3.81-1.63 6.29 2.33 0 6.75-1.78 4.43-1.79 8.77-4.43 4.35-2.64 7.61-5.59 3.26-2.95 3.26-5.59 0-1.4-1.08-2.33-1.09-.93-2.57-1.55-1.47-.62-3.02-.93-1.56-.31-2.8-.31m40.37 78.87L440.64 4.8q3.26-3.11 5.2-2.48 1.94.62 2.87 4.19.93 3.57 1.09 9.31.15 5.75-.08 12.97-.23 7.22-.85 15.22-.63 7.99-1.09 15.68-.47 7.69-.62 14.67-.16 6.99.46 12.11h.47q.31 0 .46-.15 8.08-8.08 14.44-17.08 6.37-9.01 11.5-17 5.12-8 9.08-13.9t7.37-8.08q2.33 0 3.96.78t1.63 3.57q0 .31-.07 1.01-.08.7-.08 1.01-3.88 7.92-8.54 15.92-4.66 7.99-10.09 15.45-5.44 7.45-11.73 14.13-6.29 6.67-13.58 12.11 0 .15-.08.54t-.08.54q0 1.56 2.56 3.42 2.57 1.86 6.52 3.57 3.96 1.71 8.86 3.42 4.89 1.71 9.62 2.95 4.74 1.24 8.85 2.02 4.12.77 6.45.77 0 .62.07 2.33.08 1.71-.23 3.57-.31 1.87-1.09 3.34-.77 1.48-2.48 1.48h-.62q-.31 0-.47-.16l-44.41-17.85q-.15 9.16-1.24 14.82-1.08 5.67-2.56 8.39-1.47 2.72-3.1 2.56-1.64-.15-2.88-2.48m70.65-6.53q0-10.09-.39-21.27-.38-11.18-.77-22.59t-.24-22.44q.16-11.02 1.4-20.65.31-.15 1.48-.23 1.16-.08 1.63-.08 2.17 0 3.49.7 1.32.7 1.32 3.03 0 9.16-.08 19.95-.07 10.79-.15 21.89-.08 11.11-.08 21.97 0 10.87.31 19.72.16 2.64-1.01 3.5-1.16.85-2.87.85-1.86 0-3.11-.85-1.24-.86-.93-3.5M503.37 9.77q0-1.86 1.24-2.49 1.24-.62 2.79-.62 3.11 0 3.89 2.02.77 2.02.77 4.66-.93 1.71-2.33 2.41-1.4.7-2.87.31-1.48-.39-2.48-1.94-1.01-1.56-1.01-4.35m30.12 115.52-3.88-67.54q-1.56.77-2.88 1.63-1.32.85-2.56 1.55-1.24.7-2.48 1.01-1.24.31-2.64 0-.93 0-1.55-1.16-.63-1.17-1.01-2.64-.39-1.48-.55-2.95-.15-1.48 0-2.26l14.91-8.54.93-39.75q.31-2.01 2.49-1.63 2.17.39 4.5 1.01.31 0 1.01.24.7.23 1.01.38-.31 4.2-.7 9.09-.39 4.89-.7 9.78-.31 4.89-.39 9.55-.08 4.66.39 8.38l23.29-6.52q.62-.15 1.01.86t.78 2.4q.38 1.4.54 2.8l.15 1.4-26.39 11.18q0 1.39.23 6.67t.54 12.5q.32 7.22.63 15.53.31 8.31.62 15.45.31 7.14.46 12.5.16 5.36.16 6.75-.31 4.66-2.72 4.66t-5.2-2.33"></path></svg></svg>