<svg xmlns="http://www.w3.org/2000/svg" xml:space="preserve" width="192" height="192" data-version="2">
    <path fill="#5e0a07" d="M30.8 55.4q.3-.75 1.2-1.73.9-.98 2.03-2.03 1.13-1.05 2.26-2.03 1.12-.98 2.03-1.43 1.2.9 2.03 2.26.82 1.35 2.03 4.58 1.2 3.24 2.93 8.8 1.73 5.57 4.59 14.89 2.85 9.32 7.14 22.93 4.29 13.62 10.45 32.71.6-.45 2.18-4.81 1.58-4.36 3.84-10.9 2.25-6.54 4.89-14.59 2.63-8.04 5.18-16.24 2.56-8.2 4.89-15.64 2.33-7.45 3.99-12.86.45-2.11.67-4.14.23-2.03.68-3.68.45-1.65 1.58-2.78 1.13-1.13 3.83-1.13 2.11-.9 3.91 2.1 1.81 3.01 3.69 8.73 1.88 5.71 3.98 13.31 2.11 7.59 4.74 15.86 2.63 8.27 5.87 16.47 3.23 8.2 7.59 14.97l21.21-86.63q.3-1.2 1.12-1.96.83-.75 1.96-.75t2.33 1.06q1.2 1.05 2.26 3.45l-21.06 84.83q0 1.95-.45 4.58t-1.2 5.12q-.75 2.48-1.73 4.28-.98 1.81-2.26 2.18-1.28.38-2.78-1.05-1.5-1.43-3.16-5.64-8.42-14.89-15.04-31.06-6.61-16.16-12.03-34.21l-19.25 63.46q-.9 6.62-2.63 10.61-1.73 3.98-3.76 5.94-2.03 1.95-4.14 2.4-2.1.46-3.76.23-1.65-.23-2.48-.9-.82-.68-.52-.98-3.46-4.66-5.94-11.2-2.49-6.55-4.52-14.29-2.03-7.75-3.98-16.24-1.96-8.5-4.14-16.85-2.18-8.34-5.18-16.01-3.01-7.67-7.07-13.99" paint-order="stroke"/>
</svg>
